<svg width="15" height="16" viewBox="0 0 15 16" fill="none" xmlns="http://www.w3.org/2000/svg">
<path d="M14.2966 4.83047C14.1923 4.72547 14.0681 4.64221 13.9314 4.58548C13.7947 4.52876 13.648 4.49971 13.5 4.5H11.25V3.9375C11.25 2.89321 10.8352 1.89169 10.0967 1.15327C9.35831 0.414843 8.35679 0 7.3125 0C6.26821 0 5.26669 0.414843 4.52827 1.15327C3.78984 1.89169 3.375 2.89321 3.375 3.9375V4.5H1.125C0.826631 4.5 0.540483 4.61853 0.329505 4.8295C0.118526 5.04048 0 5.32663 0 5.625V13.2188C0 14.5898 1.16016 15.75 2.53125 15.75H12.0938C12.757 15.7502 13.3939 15.4909 13.8684 15.0275C14.1072 14.7997 14.2974 14.5259 14.4274 14.2226C14.5574 13.9192 14.6247 13.5927 14.625 13.2627V5.625C14.6254 5.47744 14.5967 5.33126 14.5403 5.19489C14.4839 5.05852 14.4011 4.93466 14.2966 4.83047ZM9.5625 10.6875H7.875V12.375C7.875 12.5242 7.81574 12.6673 7.71025 12.7727C7.60476 12.8782 7.46168 12.9375 7.3125 12.9375C7.16332 12.9375 7.02024 12.8782 6.91475 12.7727C6.80926 12.6673 6.75 12.5242 6.75 12.375V10.6875H5.0625C4.91332 10.6875 4.77024 10.6282 4.66475 10.5227C4.55926 10.4173 4.5 10.2742 4.5 10.125C4.5 9.97582 4.55926 9.83274 4.66475 9.72725C4.77024 9.62176 4.91332 9.5625 5.0625 9.5625H6.75V7.875C6.75 7.72582 6.80926 7.58274 6.91475 7.47725C7.02024 7.37176 7.16332 7.3125 7.3125 7.3125C7.46168 7.3125 7.60476 7.37176 7.71025 7.47725C7.81574 7.58274 7.875 7.72582 7.875 7.875V9.5625H9.5625C9.71168 9.5625 9.85476 9.62176 9.96025 9.72725C10.0657 9.83274 10.125 9.97582 10.125 10.125C10.125 10.2742 10.0657 10.4173 9.96025 10.5227C9.85476 10.6282 9.71168 10.6875 9.5625 10.6875ZM10.125 4.5H4.5V3.9375C4.5 3.19158 4.79632 2.47621 5.32376 1.94876C5.85121 1.42132 6.56658 1.125 7.3125 1.125C8.05842 1.125 8.77379 1.42132 9.30124 1.94876C9.82868 2.47621 10.125 3.19158 10.125 3.9375V4.5Z" fill="white"/>
</svg>
