<svg width="21" height="21" viewBox="0 0 21 21" fill="none" xmlns="http://www.w3.org/2000/svg">
<path d="M18 1.49993H17.25V0.771025C17.25 0.367432 16.9397 0.0210253 16.5361 0.000869053C16.4347 -0.00401682 16.3333 0.0117366 16.2382 0.0471749C16.1431 0.0826132 16.0561 0.136999 15.9826 0.207035C15.9091 0.277072 15.8506 0.361302 15.8106 0.454621C15.7706 0.547941 15.75 0.648407 15.75 0.749931V1.49993H5.25V0.771025C5.25 0.367432 4.93969 0.0210253 4.53609 0.000869053C4.43469 -0.00401682 4.33334 0.0117366 4.2382 0.0471749C4.14307 0.0826132 4.05611 0.136999 3.98261 0.207035C3.90911 0.277072 3.8506 0.361302 3.81062 0.454621C3.77063 0.547941 3.75001 0.648407 3.75 0.749931V1.49993H3C2.20435 1.49993 1.44129 1.816 0.87868 2.37861C0.316071 2.94122 0 3.70428 0 4.49993V5.06243C0 5.11216 0.0197544 5.15985 0.0549175 5.19501C0.0900806 5.23018 0.137772 5.24993 0.1875 5.24993H20.8125C20.8622 5.24993 20.9099 5.23018 20.9451 5.19501C20.9802 5.15985 21 5.11216 21 5.06243V4.49993C21 3.70428 20.6839 2.94122 20.1213 2.37861C19.5587 1.816 18.7956 1.49993 18 1.49993ZM20.8125 6.74993H0.1875C0.137772 6.74993 0.0900806 6.76968 0.0549175 6.80485C0.0197544 6.84001 0 6.8877 0 6.93743V17.9999C0 18.7956 0.316071 19.5586 0.87868 20.1212C1.44129 20.6839 2.20435 20.9999 3 20.9999H18C18.7956 20.9999 19.5587 20.6839 20.1213 20.1212C20.6839 19.5586 21 18.7956 21 17.9999V6.93743C21 6.8877 20.9802 6.84001 20.9451 6.80485C20.9099 6.76968 20.8622 6.74993 20.8125 6.74993ZM9.73031 17.3015C9.15984 17.752 8.38266 17.9999 7.54125 17.9999C6.23484 17.9999 5.26875 17.1487 4.83844 16.4202C4.73712 16.2489 4.708 16.0444 4.75749 15.8516C4.80698 15.6588 4.93103 15.4936 5.10234 15.3923C5.27366 15.291 5.4782 15.2618 5.67099 15.3113C5.86377 15.3608 6.02899 15.4849 6.13031 15.6562C6.18094 15.7424 6.65297 16.4999 7.54125 16.4999C8.32219 16.4999 9.23438 16.1582 9.23438 15.1959C9.23438 14.9029 9.17719 14.4951 8.90625 14.2171C8.50594 13.8074 7.83984 13.6232 7.49484 13.6232C7.29593 13.6232 7.10517 13.5442 6.96451 13.4035C6.82386 13.2629 6.74484 13.0721 6.74484 12.8732C6.74484 12.6743 6.82386 12.4835 6.96451 12.3429C7.10517 12.2022 7.29593 12.1232 7.49484 12.1232C7.72219 12.1232 8.31094 12.0013 8.67984 11.624C8.77965 11.5258 8.85842 11.4084 8.91137 11.2788C8.96432 11.1492 8.99032 11.0102 8.98781 10.8702C8.98781 9.78134 7.64578 9.74993 7.49297 9.74993C6.68016 9.74993 6.37734 10.2473 6.36469 10.2684C6.31596 10.3557 6.25025 10.4325 6.17142 10.494C6.0926 10.5556 6.00225 10.6008 5.90569 10.627C5.80914 10.6531 5.70833 10.6597 5.6092 10.6463C5.51007 10.6329 5.41462 10.5998 5.32847 10.5489C5.24233 10.4981 5.16722 10.4305 5.10758 10.3502C5.04794 10.2699 5.00496 10.1785 4.98118 10.0813C4.9574 9.98416 4.9533 9.88322 4.96912 9.78444C4.98493 9.68567 5.02035 9.59106 5.07328 9.50618C5.43141 8.8968 6.25547 8.24993 7.49297 8.24993C8.26359 8.24993 8.98172 8.47352 9.51469 8.87899C10.1423 9.35712 10.4878 10.064 10.4878 10.8702C10.4899 11.2045 10.4258 11.5359 10.2992 11.8452C10.1725 12.1546 9.98589 12.4358 9.75 12.6726C9.69609 12.7279 9.63937 12.7795 9.58172 12.8296C9.72254 12.9313 9.85456 13.0447 9.97641 13.1685C10.4714 13.6748 10.733 14.3756 10.733 15.1959C10.7344 16.0424 10.3777 16.7901 9.73031 17.3015ZM15.75 17.0624C15.75 17.2613 15.671 17.4521 15.5303 17.5928C15.3897 17.7334 15.1989 17.8124 15 17.8124C14.8011 17.8124 14.6103 17.7334 14.4697 17.5928C14.329 17.4521 14.25 17.2613 14.25 17.0624V10.5135L13.1948 11.2912C13.1156 11.3497 13.0255 11.3919 12.9299 11.4156C12.8343 11.4393 12.7349 11.4439 12.6375 11.4292C12.5401 11.4145 12.4465 11.3808 12.3622 11.3299C12.2778 11.279 12.2043 11.212 12.1458 11.1327C12.0873 11.0535 12.045 10.9634 12.0213 10.8678C11.9976 10.7722 11.993 10.6728 12.0077 10.5754C12.0224 10.478 12.0562 10.3844 12.1071 10.3001C12.1579 10.2157 12.2249 10.1422 12.3042 10.0837L14.3395 8.58368C14.4684 8.4887 14.6243 8.43745 14.7844 8.43743H15C15.1989 8.43743 15.3897 8.51645 15.5303 8.6571C15.671 8.79775 15.75 8.98852 15.75 9.18743V17.0624Z" fill="#1A1F16" fill-opacity="0.5"/>
</svg>
