<svg width="20" height="21" viewBox="0 0 20 21" fill="none" xmlns="http://www.w3.org/2000/svg">
<path d="M19.0617 6.44062C18.9227 6.3006 18.7573 6.18956 18.575 6.11392C18.3928 6.03829 18.1973 5.99957 18 6H15V5.25C15 3.85761 14.4469 2.52226 13.4623 1.53769C12.4777 0.553123 11.1424 0 9.75 0C8.35761 0 7.02226 0.553123 6.03769 1.53769C5.05312 2.52226 4.5 3.85761 4.5 5.25V6H1.5C1.10218 6 0.720644 6.15804 0.43934 6.43934C0.158035 6.72064 0 7.10218 0 7.5V17.625C0 19.4531 1.54688 21 3.375 21H16.125C17.0093 21.0003 17.8586 20.6545 18.4913 20.0367C18.8096 19.733 19.0632 19.3679 19.2365 18.9634C19.4099 18.559 19.4995 18.1236 19.5 17.6836V7.5C19.5006 7.30321 19.4622 7.10826 19.387 6.92642C19.3117 6.74458 19.2012 6.57946 19.0617 6.44062ZM6 5.25C6 4.25544 6.39509 3.30161 7.09835 2.59835C7.80161 1.89509 8.75544 1.5 9.75 1.5C10.7446 1.5 11.6984 1.89509 12.4017 2.59835C13.1049 3.30161 13.5 4.25544 13.5 5.25V6H6V5.25ZM15 9.75C15 11.1424 14.4469 12.4777 13.4623 13.4623C12.4777 14.4469 11.1424 15 9.75 15C8.35761 15 7.02226 14.4469 6.03769 13.4623C5.05312 12.4777 4.5 11.1424 4.5 9.75V9C4.5 8.80109 4.57902 8.61032 4.71967 8.46967C4.86032 8.32902 5.05109 8.25 5.25 8.25C5.44891 8.25 5.63968 8.32902 5.78033 8.46967C5.92098 8.61032 6 8.80109 6 9V9.75C6 10.7446 6.39509 11.6984 7.09835 12.4017C7.80161 13.1049 8.75544 13.5 9.75 13.5C10.7446 13.5 11.6984 13.1049 12.4017 12.4017C13.1049 11.6984 13.5 10.7446 13.5 9.75V9C13.5 8.80109 13.579 8.61032 13.7197 8.46967C13.8603 8.32902 14.0511 8.25 14.25 8.25C14.4489 8.25 14.6397 8.32902 14.7803 8.46967C14.921 8.61032 15 8.80109 15 9V9.75Z" fill="#1A1F16"/>
</svg>
