<svg width="20" height="17" viewBox="0 0 20 17" fill="none" xmlns="http://www.w3.org/2000/svg">
<path d="M5.25 8.25C5.25 8.05109 5.32902 7.86032 5.46967 7.71967C5.61032 7.57902 5.80109 7.5 6 7.5H12.75V2.625C12.75 1.125 11.1661 0 9.75 0H2.625C1.92904 0.000744481 1.26179 0.277545 0.769667 0.769667C0.277545 1.26179 0.000744481 1.92904 0 2.625V13.875C0.000744481 14.571 0.277545 15.2382 0.769667 15.7303C1.26179 16.2225 1.92904 16.4993 2.625 16.5H10.125C10.821 16.4993 11.4882 16.2225 11.9803 15.7303C12.4725 15.2382 12.7493 14.571 12.75 13.875V9H6C5.80109 9 5.61032 8.92098 5.46967 8.78033C5.32902 8.63968 5.25 8.44891 5.25 8.25ZM19.2802 7.71984L15.5302 3.96984C15.3884 3.83513 15.1995 3.76114 15.004 3.76364C14.8084 3.76614 14.6215 3.84495 14.4832 3.98325C14.3449 4.12155 14.2661 4.3084 14.2636 4.50398C14.2611 4.69955 14.3351 4.88836 14.4698 5.03016L16.9392 7.5H12.75V9H16.9392L14.4698 11.4698C14.3973 11.5388 14.3392 11.6216 14.2992 11.7133C14.2591 11.805 14.2378 11.9039 14.2365 12.004C14.2352 12.1041 14.254 12.2034 14.2917 12.2961C14.3294 12.3889 14.3853 12.4731 14.4561 12.5439C14.5269 12.6147 14.6111 12.6706 14.7039 12.7083C14.7966 12.746 14.8959 12.7648 14.996 12.7635C15.0961 12.7622 15.195 12.7409 15.2867 12.7008C15.3784 12.6608 15.4612 12.6027 15.5302 12.5302L19.2802 8.78016C19.4207 8.63952 19.4997 8.44883 19.4997 8.25C19.4997 8.05117 19.4207 7.86048 19.2802 7.71984Z" fill="white"/>
</svg>
