<svg width="17" height="23" viewBox="0 0 17 23" fill="none" xmlns="http://www.w3.org/2000/svg">
<path d="M13.5 8.25H12.75V4.5C12.75 3.30653 12.2759 2.16193 11.432 1.31802C10.5881 0.474106 9.44347 0 8.25 0C7.05653 0 5.91193 0.474106 5.06802 1.31802C4.22411 2.16193 3.75 3.30653 3.75 4.5V8.25H3C2.20462 8.25087 1.44206 8.56722 0.879639 9.12964C0.317218 9.69206 0.000868526 10.4546 0 11.25V19.5C0.000868526 20.2954 0.317218 21.0579 0.879639 21.6204C1.44206 22.1828 2.20462 22.4991 3 22.5H13.5C14.2954 22.4991 15.0579 22.1828 15.6204 21.6204C16.1828 21.0579 16.4991 20.2954 16.5 19.5V11.25C16.4991 10.4546 16.1828 9.69206 15.6204 9.12964C15.0579 8.56722 14.2954 8.25087 13.5 8.25ZM11.25 8.25H5.25V4.5C5.25 3.70435 5.56607 2.94129 6.12868 2.37868C6.69129 1.81607 7.45435 1.5 8.25 1.5C9.04565 1.5 9.80871 1.81607 10.3713 2.37868C10.9339 2.94129 11.25 3.70435 11.25 4.5V8.25Z" fill="#02D693"/>
</svg>
