<svg width="20" height="21" viewBox="0 0 20 21" fill="none" xmlns="http://www.w3.org/2000/svg">
<path d="M1.5 17.9856C1.5 18.7812 1.81607 19.5443 2.37868 20.1069C2.94129 20.6695 3.70435 20.9856 4.5 20.9856H8.8125C8.86223 20.9856 8.90992 20.9658 8.94508 20.9307C8.98025 20.8955 9 20.8478 9 20.7981V12.1731C9 12.1234 8.98025 12.0757 8.94508 12.0405C8.90992 12.0053 8.86223 11.9856 8.8125 11.9856H1.875C1.77554 11.9856 1.68016 12.0251 1.60984 12.0954C1.53951 12.1658 1.5 12.2611 1.5 12.3606V17.9856ZM9 10.2981V5.23559H10.5V10.2981C10.5 10.3478 10.5198 10.3955 10.5549 10.4307C10.5901 10.4658 10.6378 10.4856 10.6875 10.4856H17.25C17.5055 10.4856 17.7591 10.442 18 10.3567C18.4383 10.2011 18.8177 9.91369 19.0863 9.53395C19.3548 9.15421 19.4993 8.7007 19.5 8.23559V7.48559C19.5 6.88885 19.2629 6.31656 18.841 5.8946C18.419 5.47264 17.8467 5.23559 17.25 5.23559H15.3497C15.3334 5.23533 15.3174 5.23081 15.3033 5.22247C15.2893 5.21414 15.2777 5.20228 15.2696 5.18807C15.2616 5.17386 15.2574 5.1578 15.2574 5.14147C15.2575 5.12514 15.2618 5.10911 15.27 5.09497C15.704 4.36225 15.8449 3.49257 15.6646 2.66029C15.4843 1.82801 14.996 1.09468 14.2976 0.607323C13.5992 0.119971 12.7425 -0.0853663 11.8991 0.0324851C11.0557 0.150336 10.288 0.582663 9.75 1.24278C9.21199 0.582663 8.44432 0.150336 7.60092 0.0324851C6.75752 -0.0853663 5.90075 0.119971 5.2024 0.607323C4.50405 1.09468 4.01574 1.82801 3.8354 2.66029C3.65506 3.49257 3.79602 4.36225 4.23 5.09497C4.23817 5.10911 4.2425 5.12514 4.24257 5.14147C4.24263 5.1578 4.23843 5.17386 4.23038 5.18807C4.22233 5.20228 4.21071 5.21414 4.19666 5.22247C4.18262 5.23081 4.16664 5.23533 4.15031 5.23559H2.25C1.65326 5.23559 1.08097 5.47264 0.65901 5.8946C0.237053 6.31656 0 6.88885 0 7.48559V8.23559C0.000661979 8.7007 0.145173 9.15421 0.41372 9.53395C0.682267 9.91369 1.0617 10.2011 1.5 10.3567C1.74085 10.442 1.99449 10.4856 2.25 10.4856H8.8125C8.86223 10.4856 8.90992 10.4658 8.94508 10.4307C8.98025 10.3955 9 10.3478 9 10.2981ZM10.5 3.36059C10.5 2.98975 10.61 2.62724 10.816 2.3189C11.022 2.01055 11.3149 1.77023 11.6575 1.62832C12.0001 1.4864 12.3771 1.44927 12.7408 1.52162C13.1045 1.59397 13.4386 1.77254 13.7008 2.03477C13.963 2.29699 14.1416 2.63108 14.214 2.9948C14.2863 3.35851 14.2492 3.73551 14.1073 4.07812C13.9654 4.42073 13.725 4.71357 13.4167 4.9196C13.1084 5.12562 12.7458 5.23559 12.375 5.23559H10.5V3.36059ZM6.99094 1.49028C7.24781 1.47186 7.50572 1.50657 7.7486 1.59222C7.99147 1.67787 8.21409 1.81263 8.40259 1.98811C8.59108 2.16359 8.74141 2.37602 8.84419 2.61215C8.94698 2.84828 9.00002 3.10306 9 3.36059V5.23559H7.125C6.64017 5.23435 6.17466 5.04535 5.82619 4.70826C5.47771 4.37117 5.27336 3.9122 5.25601 3.42768C5.23867 2.94315 5.40968 2.47075 5.73316 2.1096C6.05664 1.74846 6.50744 1.52666 6.99094 1.49075V1.49028ZM10.6875 20.9856H15C15.7956 20.9856 16.5587 20.6695 17.1213 20.1069C17.6839 19.5443 18 18.7812 18 17.9856V12.3606C18 12.2611 17.9605 12.1658 17.8902 12.0954C17.8198 12.0251 17.7245 11.9856 17.625 11.9856H10.6875C10.6378 11.9856 10.5901 12.0053 10.5549 12.0405C10.5198 12.0757 10.5 12.1234 10.5 12.1731V20.7981C10.5 20.8478 10.5198 20.8955 10.5549 20.9307C10.5901 20.9658 10.6378 20.9856 10.6875 20.9856Z" fill="#1A1F16"/>
</svg>
